<svg version="1.1" xmlns="http://www.w3.org/2000/svg" viewBox="0 0 600 100">
<g fill="none" stroke="#98c8f5">
  <rect x="32" y="48" width="110" height="35" rx="4" ry="4"/>
  <rect x="174" y="48" width="110" height="35" rx="4" ry="4"/>
  <rect x="316" y="48" width="110" height="35" rx="4" ry="4"/>
  <rect x="458" y="48" width="110" height="35" rx="4" ry="4"/>
</g>
<g fill="#ccc" stroke="#ccc">
  <line x1="142.5" y1="66.5" x2="166.3" y2="66.5"/>
  <path d="M164.6,66.5l-2.2-3.6l0.1-0.1l5.9,2.3c2,0.5,4.1,0.9,6.1,1.4c-2,0.5-4.1,0.9-6.1,1.4l-5.9,2.3l-0.1-0.1L164.6,66.5z"/>
  <line x1="284.5" y1="65.5" x2="308.3" y2="65.5"/>
  <path d="M306.6,65.5l-2.2-3.6l0.1-0.1l5.9,2.3c2,0.5,4.1,0.9,6.1,1.4c-2,0.5-4.1,0.9-6.1,1.4l-5.9,2.3l-0.1-0.1L306.6,65.5z"/>
  <line x1="426.5" y1="65.5" x2="450.3" y2="65.5"/>
  <path d="M448.6,65.5l-2.2-3.6l0.1-0.1l5.9,2.3c2,0.5,4.1,0.9,6.1,1.4c-2,0.5-4.1,0.9-6.1,1.4l-5.9,2.3l-0.1-0.1L448.6,65.5z"/>
</g>
<g fill="#ccc" font-size="16px" font-family="JetBrains Mono">
  <text x="261.6" y="27.7">Compiler</text>
  <text x="64" y="71">Lexer</text>
  <text x="200.2" y="71">Parser</text>
  <text x="332.6" y="71">Analyzer</text>
  <text x="479.4" y="71">Codegen</text>
</g>
</svg>
