<svg version="1.1" xmlns="http://www.w3.org/2000/svg" viewBox="0 0 620 200" font-family="JetBrains Mono">
<g fill="none" stroke="#98c8f5">
  <path d="M10,30L610,30M10,70L610,70"/>
  <path d="M210,30L210,70M310,30L310,70M410,30L410,70"/>
  <path d="M10,130L610,130M10,170L610,170"/>
  <path d="M210,130L210,170M310,130L310,170M410,130L410,170"/>
</g>
<g fill="none" stroke="#f3e5cf" stroke-width="2">
  <rect x="110" y="30" width="400" height="40"/>
  <rect x="110" y="130" width="400" height="40"/>
</g>
<g fill="#ccc" font-size="16">
  <text x="20" y="20">little-endian:</text>
  <text x="20" y="120">big-endian:</text>
</g>
<g fill="#ccc" font-size="16" text-anchor="middle">
  <text x="310" y="92"><tspan fill="#b5cea8">1240</tspan> as int32</text>
  <text x="310" y="192"><tspan fill="#b5cea8">1240</tspan> as int32</text>
</g>
<g fill="#a9bab8" font-size="17" text-anchor="middle">
  <text x="160" y="56">11011000</text>
  <text x="260" y="56">00000100</text>
  <text x="360" y="56">00000000</text>
  <text x="460" y="56">00000000</text>
  <text x="160" y="156">00000000</text>
  <text x="260" y="156">00000000</text>
  <text x="360" y="156">00000100</text>
  <text x="460" y="156">11011000</text>
</g>
<g fill="#808080" font-size="17" text-anchor="middle">
  <text x="60" y="56">00101110</text>
  <text x="560" y="56">10010010</text>
  <text x="60" y="156">11100100</text>
  <text x="560" y="156">00010110</text>
</g>
</svg>
