<svg version="1.1" xmlns="http://www.w3.org/2000/svg" viewBox="0 0 256 64" fill="none" stroke="#ccc">
  <style>
    path{ fill: #ccc; stroke: none; }
    text{ fill: #ccc; stroke: none; font-size: 10px; font-family: "JetBrains Mono"; }
    .st4{ stroke-width: 0.5; }
    .st6{ stroke-width: 0.5; stroke-dasharray: 3; }
    .st7{ stroke-width: 0.25; stroke-dasharray: 2; }
  </style>
  <g stroke="#98c8f5" stroke-width="0.25">
    <rect x="45.4" y="8.4" width="191.2" height="15.2" stroke-width="0.75"/>
    <line x1="69" y1="8" x2="69" y2="24"/>
    <line x1="93" y1="8" x2="93" y2="24"/>
    <line x1="117" y1="8" x2="117" y2="24"/>
    <line x1="141" y1="8" x2="141" y2="24"/>
    <line x1="165" y1="8" x2="165" y2="24"/>
    <line x1="189" y1="8" x2="189" y2="24"/>
    <line x1="213" y1="8" x2="213" y2="24"/>
  </g>
  <g>
    <line class="st4" x1="232.9" y1="32" x2="231.4" y2="32"/>
    <line class="st6" x1="228.5" y1="32" x2="148" y2="32"/>
    <line class="st4" x1="146.6" y1="32" x2="145.1" y2="32"/>
    <path d="M232,32l-1.1,1.8l0.1,0l2.9-1.2c1-0.2,2-0.5,3.1-0.7c-1-0.2-2-0.5-3.1-0.7l-2.9-1.2l-0.1,0L232,32z"/>
    <path d="M146,32l1.1,1.8l-0.1,0l-2.9-1.2c-1-0.2-2-0.5-3.1-0.7c1-0.2,2-0.5,3.1-0.7l2.9-1.2l0.1,0L146,32z"/>
  </g>
  <g>
    <line class="st4" x1="232.9" y1="48" x2="231.4" y2="48"/>
    <line class="st6" x1="228.6" y1="48" x2="196" y2="48"/>
    <line class="st4" x1="194.6" y1="48" x2="193.1" y2="48"/>
    <path d="M232,48l-1.1,1.8l0.1,0l2.9-1.2c1-0.2,2-0.5,3.1-0.7c-1-0.2-2-0.5-3.1-0.7l-2.9-1.2l-0.1,0L232,48z"/>
    <path d="M194,48l1.1,1.8l-0.1,0l-2.9-1.2c-1-0.2-2-0.5-3.1-0.7c1-0.2,2-0.5,3.1-0.7l2.9-1.2l0.1,0L194,48z"/>
  </g>
  <text x="19" y="19">RAX</text>
  <text x="180" y="42.6">EAX</text>
  <text x="207" y="58.6">AX</text>
  <text x="195" y="19">AH</text>
  <text x="219" y="19">AL</text>
  <line class="st7" x1="237" y1="24" x2="237" y2="51"/>
  <line class="st7" x1="141" y1="24" x2="141" y2="35"/>
  <line class="st7" x1="189" y1="45" x2="189" y2="51"/>
  <line class="st7" x1="189" y1="24" x2="189" y2="34"/>
</svg>
