<svg version="1.1" xmlns="http://www.w3.org/2000/svg" viewBox="0 50 400 200" fill="none" stroke="#ccc">
<g stroke="#98c8f5">
  <path d="M271,90L271,240L171,240L171,90c21.5-23,36.5-25.7,46.6-23c12.3,3.3,18.1,14.6,28.9,13c11.4-1.6,19.6-16.1,24.9-29Z"/>
  <line x1="171" y1="140" x2="271" y2="140"/>
  <line x1="171" y1="150" x2="271" y2="150"/>
  <line x1="171" y1="230" x2="271" y2="230"/>
</g>
<g>
  <line x1="131.9" y1="235.2" x2="158.8" y2="235.2"/>
  <path fill="#ccc" d="M157,235.2l-2.2-3.6l0.1-0.1l5.9,2.3c2,0.5,4.1,0.9,6.1,1.4c-2,0.5-4.1,0.9-6.1,1.4l-5.9,2.3l-0.1-0.1L157,235.2z"/>
  <line x1="131.9" y1="145.2" x2="158.8" y2="145.2"/>
  <path fill="#ccc" d="M157,145.2l-2.2-3.6l0.1-0.1l5.9,2.3c2,0.5,4.1,0.9,6.1,1.4c-2,0.5-4.1,0.9-6.1,1.4l-5.9,2.3l-0.1-0.1L157,145.2z"/>
  <line x1="306.9" y1="240.2" x2="306.9" y2="98.4"/>
  <path fill="#ccc" d="M306.9,100.2l-3.6,2.2l-0.1-0.1l2.3-5.9c0.5-2,0.9-4.1,1.4-6.1c0.5,2,0.9,4.1,1.4,6.1l2.3,5.9l-0.1,0.1L306.9,100.2z"/>
  <line x1="341.9" y1="232.1" x2="341.9" y2="90.2"/>
  <path fill="#ccc" d="M341.9,230.3l-3.6-2.2l-0.1,0.1l2.3,5.9c0.5,2,0.9,4.1,1.4,6.1c0.5-2,0.9-4.1,1.4-6.1l2.3-5.9l-0.1-0.1L341.9,230.3z"/>
</g>
<g style="fill:#ccc;stroke:none;font-size:10px;font-family:JetBrains Mono">
  <text transform="matrix(1 0 0 1 46.9336 233.8496)"><tspan x="0" y="0">максимальный</tspan><tspan x="21" y="12">адрес</tspan></text>
  <text transform="matrix(1 0 0 1 55.9338 143.8497)"><tspan x="0" y="0">указатель</tspan><tspan x="12" y="12">стека</tspan></text>
  <text transform="matrix(0 -1 1 0 350.666 201.2495)">рост адресов</text>
  <text transform="matrix(0 -1 1 0 315 195.2495)">рост стека</text>
  <text transform="matrix(1 0 0 1 194.9341 107.3501)"><tspan x="0" y="0">свободная</tspan><tspan x="9" y="12">память</tspan></text>
</g>
</svg>
