<svg version="1.1" xmlns="http://www.w3.org/2000/svg" viewBox="0 0 700 120" font-family="JetBrains Mono">
<g fill="#ccc" font-size="16">
  <text x="10" y="20"><tspan fill="#82d2ce">struct</tspan> <tspan fill="#87c3ff">Point3D</tspan> {</text>
  <text x="10" y="42">&#160;&#160;<tspan fill="#af9cff">x</tspan>: <tspan fill="#87c3ff">f32</tspan>;</text>
  <text x="10" y="64">&#160;&#160;<tspan fill="#af9cff">y</tspan>: <tspan fill="#87c3ff">f32</tspan>;</text>
  <text x="10" y="86">&#160;&#160;<tspan fill="#af9cff">z</tspan>: <tspan fill="#87c3ff">f32</tspan>;</text>
  <text x="10" y="108">}</text>
</g>
<g fill="none" stroke="#98c8f5">
  <rect x="240" y="50" width="360" height="20" fill="#2e3848" stroke="none"/>
  <path d="M180,50L660,50M180,70L660,70 M210,50L210,70 M240,50L240,70 M270,50L270,70 M300,50L300,70
           M330,50L330,70 M360,50L360,70 M390,50L390,70 M420,50L420,70 M450,50L450,70 M480,50L480,70
           M510,50L510,70 M540,50L540,70 M570,50L570,70 M600,50L600,70 M630,50L630,70"/>
</g>
<g fill="none" stroke="#999">
  <path d="M240,85L600,85 M240,80L240,90 M360,80L360,90 M480,80L480,90 M600,80L600,90"/>
  <path d="M255,55L255,40 M375,55L375,40 M495,55L495,40 M245,55L245,15"/>
</g>
<g fill="#af9cff" font-size="14" text-anchor="middle">
  <text x="300" y="100">x</text>
  <text x="420" y="100">y</text>
  <text x="540" y="100">z</text>
</g>
<g fill="#ccc" font-size="14">
  <text x="251" y="38">&amp;x</text>
  <text x="371" y="38">&amp;y</text>
  <text x="491" y="38">&amp;z</text>
  <text x="241" y="13">&amp;point</text>
</g>
</svg>
