<svg version="1.1" xmlns="http://www.w3.org/2000/svg" viewBox="0 0 400 160">
<g fill="none" stroke="none">
  <line stroke="#ccc" x1="100" y1="30" x2="134.5" y2="47.3"/>
  <path fill="#ccc" d="M133.3,46.7l-0.3-3.2l0.1,0l3.2,3.5c1.2,1,2.4,2,3.7,3c-1.5-0.4-3-0.8-4.6-1.2l-4.7-0.4l-0.1-0.1L133.3,46.7z"/>
  <line stroke="#ccc" x1="300" y1="30" x2="334.5" y2="47.3"/>
  <path fill="#ccc" d="M333.3,46.7l-0.3-3.2l0.1,0l3.2,3.5c1.2,1,2.4,2,3.7,3c-1.5-0.4-3-0.8-4.6-1.2l-4.7-0.4l-0.1-0.1L333.3,46.7z"/>
  <line stroke="#ccc" x1="60" y1="70" x2="94.5" y2="87.3"/>
  <path fill="#ccc" d="M93.3,86.7l-0.3-3.2l0.1,0l3.2,3.5c1.2,1,2.4,2,3.7,3c-1.5-0.4-3-0.8-4.6-1.2l-4.7-0.4l-0.1-0.1L93.3,86.7z"/>
  <line stroke="#ccc" x1="340" y1="70" x2="374.5" y2="87.3"/>
  <path fill="#ccc" d="M373.3,86.7l-0.3-3.2l0.1,0l3.2,3.5c1.2,1,2.4,2,3.7,3c-1.5-0.4-3-0.8-4.6-1.2l-4.7-0.4l-0.1-0.1L373.3,86.7z"/>
  <line stroke="#ccc" x1="100" y1="30" x2="100" y2="43.9"/>
  <path fill="#ccc" d="M100,42.5l2.7-1.6l0.1,0.1l-1.8,4.4c-0.3,1.5-0.7,3.1-1,4.6c-0.3-1.5-0.7-3.1-1-4.6L97.2,41l0-0.1L100,42.5z"/>
  <line stroke="#ccc" x1="300" y1="30" x2="300" y2="43.9"/>
  <path fill="#ccc" d="M300,42.5l2.7-1.6l0.1,0.1l-1.8,4.4c-0.3,1.5-0.7,3.1-1,4.6c-0.3-1.5-0.7-3.1-1-4.6l-1.8-4.4l0-0.1L300,42.5z"/>
  <line stroke="#ccc" x1="140" y1="70" x2="140" y2="83.9"/>
  <path fill="#ccc" d="M140,82.5l2.7-1.6l0.1,0.1l-1.8,4.4c-0.3,1.5-0.7,3.1-1,4.6c-0.3-1.5-0.7-3.1-1-4.6l-1.8-4.4l0-0.1L140,82.5z"/>
  <line stroke="#ccc" x1="100" y1="110" x2="100" y2="123.9"/>
  <path fill="#ccc" d="M100,122.5l2.7-1.6l0.1,0.1l-1.8,4.4c-0.3,1.5-0.7,3.1-1,4.6c-0.3-1.5-0.7-3.1-1-4.6l-1.8-4.4l0-0.1L100,122.5z"/>
  <line stroke="#ccc" x1="20" y1="110" x2="20" y2="123.9"/>
  <path fill="#ccc" d="M20,122.5l2.7-1.6l0.1,0.1l-1.8,4.4c-0.3,1.5-0.7,3.1-1,4.6c-0.3-1.5-0.7-3.1-1-4.6l-1.8-4.4l0-0.1L20,122.5z"/>
  <line stroke="#ccc" x1="60" y1="70" x2="60" y2="83.9"/>
  <path fill="#ccc" d="M60,82.5l2.7-1.6l0.1,0.1L61,85.4c-0.3,1.5-0.7,3.1-1,4.6c-0.3-1.5-0.7-3.1-1-4.6L57.2,81l0-0.1L60,82.5z"/>
  <line stroke="#ccc" x1="300" y1="110" x2="300" y2="123.9"/>
  <path fill="#ccc" d="M300,122.5l2.7-1.6l0.1,0.1l-1.8,4.4c-0.3,1.5-0.7,3.1-1,4.6c-0.3-1.5-0.7-3.1-1-4.6l-1.8-4.4l0-0.1L300,122.5z"/>
  <line stroke="#ccc" x1="380" y1="110" x2="380" y2="123.9"/>
  <path fill="#ccc" d="M380,122.5l2.7-1.6l0.1,0.1l-1.8,4.4c-0.3,1.5-0.7,3.1-1,4.6c-0.3-1.5-0.7-3.1-1-4.6l-1.8-4.4l0-0.1L380,122.5z"/>
  <line stroke="#ccc" x1="340" y1="70" x2="340" y2="83.9"/>
  <path fill="#ccc" d="M340,82.5l2.7-1.6l0.1,0.1l-1.8,4.4c-0.3,1.5-0.7,3.1-1,4.6c-0.3-1.5-0.7-3.1-1-4.6l-1.8-4.4l0-0.1L340,82.5z"/>
  <line stroke="#ccc" x1="260" y1="70" x2="260" y2="83.9"/>
  <path fill="#ccc" d="M260,82.5l2.7-1.6l0.1,0.1l-1.8,4.4c-0.3,1.5-0.7,3.1-1,4.6c-0.3-1.5-0.7-3.1-1-4.6l-1.8-4.4l0-0.1L260,82.5z"/>
  <line stroke="#ccc" x1="300" y1="30" x2="265.5" y2="47.3"/>
  <path fill="#ccc" d="M266.7,46.7l2.7,1.7l-0.1,0.1l-4.7,0.4c-1.5,0.4-3,0.8-4.6,1.2c1.2-1,2.4-2,3.7-3l3.2-3.5l0.1,0L266.7,46.7z"/>
  <line stroke="#ccc" x1="340" y1="70" x2="305.5" y2="87.3"/>
  <path fill="#ccc" d="M306.7,86.7l2.7,1.7l-0.1,0.1l-4.7,0.4c-1.5,0.4-3,0.8-4.6,1.2c1.2-1,2.4-2,3.7-3l3.2-3.5h0.1L306.7,86.7z"/>
  <line stroke="#ccc" x1="100" y1="30" x2="65.5" y2="47.3"/>
  <path fill="#ccc" d="M66.7,46.7l2.7,1.7l-0.1,0.1l-4.7,0.4c-1.5,0.4-3,0.8-4.6,1.2c1.2-1,2.4-2,3.7-3l3.2-3.5l0.1,0L66.7,46.7z"/>
  <line stroke="#ccc" x1="60" y1="70" x2="25.5" y2="87.3"/>
  <path fill="#ccc" d="M26.7,86.7l2.7,1.7l-0.1,0.1l-4.7,0.4c-1.5,0.4-3,0.8-4.6,1.2c1.2-1,2.4-2,3.7-3l3.2-3.5h0.1L26.7,86.7z"/>
</g>
<g fill="none" stroke="#98C8F5">
  <circle cx="100" cy="20" r="10"/>
  <circle cx="60" cy="60" r="10"/>
  <circle cx="100" cy="60" r="10"/>
  <circle cx="140" cy="60" r="10"/>
  <circle cx="20" cy="100" r="10"/>
  <circle cx="60" cy="100" r="10"/>
  <circle cx="100" cy="100" r="10"/>
  <circle cx="140" cy="100" r="10"/>
  <circle cx="20" cy="140" r="10"/>
  <circle cx="100" cy="140" r="10"/>
  <circle cx="300" cy="20" r="10"/>
  <circle cx="260" cy="60" r="10"/>
  <circle cx="300" cy="60" r="10"/>
  <circle cx="340" cy="60" r="10"/>
  <circle cx="260" cy="100" r="10"/>
  <circle cx="300" cy="100" r="10"/>
  <circle cx="340" cy="100" r="10"/>
  <circle cx="380" cy="100" r="10"/>
  <circle cx="300" cy="140" r="10"/>
  <circle cx="380" cy="140" r="10"/>
</g>
<g fill="#ccc" font-size="12px" font-family="JetBrains Mono">
  <text x="136.4" y="63.7">E</text>
  <text x="96.4" y="23.7">E</text>
  <text x="56.4" y="63.7">E</text>
  <text x="96.4" y="103.7">E</text>
  <text x="16.4" y="103.7">E</text>
  <text x="296.4" y="23.7">E</text>
  <text x="256.4" y="63.7">E</text>
  <text x="336.4" y="63.7">E</text>
  <text x="296.4" y="103.7">E</text>
  <text x="376.4" y="103.7">E</text>
  <text x="96.4" y="143.7">n</text>
  <text x="16.4" y="143.7">n</text>
  <text x="136.4" y="103.7">n</text>
  <text x="296.4" y="143.7">n</text>
  <text x="256.4" y="103.7">n</text>
  <text x="376.4" y="143.7">n</text>
  <text x="56.4" y="103.7">+</text>
  <text x="296.4" y="63.7">+</text>
  <text x="96.4" y="63.7">*</text>
  <text x="336.4" y="103.7">*</text>
</g>
</svg>
