<svg xmlns="http://www.w3.org/2000/svg" viewBox="0 0 240 120" stroke="#ccc" stroke-width="0.5" font-family="JetBrains Mono">
<g fill="none">
  <rect x="95" y="14" width="50" height="16" rx="1" ry="1" fill="#7ea6e016"/>
  <path d="M95,22l-55,0l0,28"/>
  <path d="M120,30 l0,20"/>
  <path d="M145,22l55,0l0,28"/>
</g>
<g fill="#ccc" stroke="none">
  <path d="M40,50 l3,-4 l-3,1 l-3,-1Z"/>
  <path d="M120,50 l3,-4 l-3,1 l-3,-1Z"/>
  <path d="M200,50 l3,-4 l-3,1 l-3,-1Z"/>
</g>
<g fill="#7ea6e009">
  <rect x="5" y="50" width="70" height="60"/>
  <rect x="85" y="50" width="70" height="60"/>
  <rect x="165" y="50" width="70" height="60"/>
</g>
<g fill="#7ea6e025">
  <rect x="5" y="50" width="10" height="10"/>
  <rect x="85" y="50" width="10" height="10"/>
  <rect x="165" y="50" width="10" height="10"/>
</g>
<g fill="#7ea6e016">
  <rect x="20" y="56" width="22" height="22"/>
  <rect x="47" y="56" width="22" height="22"/>
  <rect x="20" y="83" width="22" height="22"/>
  <rect x="47" y="83" width="22" height="22"/>

  <rect x="100" y="56" width="22" height="22"/>
  <rect x="127" y="56" width="22" height="22"/>
  <rect x="100" y="83" width="22" height="22"/>
  <rect x="127" y="83" width="22" height="22"/>

  <rect x="180" y="56" width="22" height="22"/>
  <rect x="207" y="56" width="22" height="22"/>
  <rect x="180" y="83" width="22" height="22"/>
  <rect x="207" y="83" width="22" height="22"/>
</g>
<g fill="#ddd" stroke="none" font-size="7" text-anchor="middle">
  <text x="120" y="24.5">DBMS</text>
  <text x="20" y="48">db-1</text>
  <text x="10" y="57.5">MD</text>
  <text x="100" y="48">db-2</text>
  <text x="90" y="57.5">MD</text>
  <text x="180" y="48">db-3</text>
  <text x="170" y="57.5">MD</text>
</g>
<g fill="#ddd" stroke="none" font-size="9" text-anchor="middle">
  <text x="31" y="70">T</text>
  <text x="58" y="70">T</text>
  <text x="31" y="97">T</text>
  <text x="58" y="97">T</text>

  <text x="111" y="70">T</text>
  <text x="138" y="70">T</text>
  <text x="111" y="97">T</text>
  <text x="138" y="97">T</text>

  <text x="191" y="70">T</text>
  <text x="218" y="70">T</text>
  <text x="191" y="97">T</text>
  <text x="218" y="97">T</text>
</g>
</svg>
