<svg version="1.1" xmlns="http://www.w3.org/2000/svg" viewBox="0 0 420 120">
<g fill="none" stroke="#888">
  <path d="M90,60L50,80 M130,60L170,80"/>
  <path d="M10,30L410,30 M10,25L10,35 M90,25L90,35 M230,25L230,35 M390,25L390,35 M410,25,L410,35"/>
</g>
<g fill="none" stroke="#ccc">
  <rect x="10" y="40" width="400" height="20" fill="#20272e"/>
  <rect x="40" y="80" width="140" height="20" stroke="none" fill="#20272e"/>
  <path d="M30,40L30,60 M50,40L50,60 M70,40L70,60 M90,40L90,60 M110,40L110,60 M130,40L130,60 M150,40L150,60 M170,40L170,60 M190,40L190,60 M210,40L210,60 M230,40L230,60 M250,40L250,60 M270,40L270,60 M290,40L290,60 M310,40L310,60 M330,40L330,60 M350,40L350,60 M370,40L370,60 M390,40L390,60"/>
  <path d="M30,80L190,80 M30,100L190,100 M50,80L50,100 M110,80L110,100 M170,80L170,100"/>
</g>
<g fill="#ccc" font-family="JetBrains Mono" font-size="11" text-anchor="middle">
  <text x="50" y="20">id</text>
  <text x="160" y="20">name</text>
  <text x="310" y="20">date</text>
  <text x="400" y="20">flag</text>
  <text x="80" y="94" fill="#a9bab8">00101101</text>
  <text x="140" y="94" fill="#a9bab8">10001011</text>
</g>
</svg>
